# xmcd CD database file
#
# Track frame offsets:
#	150
#	20225
#	41772
#
# Disc length: 824 seconds
#
# Revision: 0
# Processed by: cddbd v1.5PL3 Copyright (c) Steve Scherf et al.
# Submitted via: CDex 1.40Release
#
DISCID=23033603
DTITLE=谷口宗一 - 風吹く丘
DYEAR=1900
DGENRE=Rock
TTITLE0=1  　風吹く丘
TTITLE1=2  　胡桃色の心
TTITLE2=３  　風吹く丘（オリジナル・カラオケ）
EXTD=ID3G: 17
EXTT0=
EXTT1=
EXTT2=
PLAYORDER=
